<svg width="40" height="40" viewBox="0 0 40 40" fill="none" xmlns="http://www.w3.org/2000/svg">
<rect x="1" y="1" width="38" height="38" rx="7" stroke="white" stroke-opacity="0.8" stroke-width="2"/>
<rect x="1" y="1" width="38" height="38" rx="7" stroke="white" stroke-opacity="0.8" stroke-width="2"/>
<rect x="1" y="1" width="38" height="38" rx="7" stroke="white" stroke-opacity="0.8" stroke-width="2"/>
<rect x="1" y="1" width="38" height="38" rx="7" stroke="white" stroke-opacity="0.8" stroke-width="2"/>
<g clip-path="url(#clip0_1122_4743)">
<path d="M25 26V13H15V26L20 23.82L25 26ZM25 11C25.5304 11 26.0391 11.2107 26.4142 11.5858C26.7893 11.9609 27 12.4696 27 13V29L20 26L13 29V13C13 12.4696 13.2107 11.9609 13.5858 11.5858C13.9609 11.2107 14.4696 11 15 11H25ZM19 15H21V17H23V19H21V21H19V19H17V17H19V15Z" fill="white"/>
</g>
<defs>
<clipPath id="clip0_1122_4743">
<rect width="24" height="24" fill="white" transform="translate(8 8)"/>
</clipPath>
</defs>
</svg>
